<?xml version="1.0" encoding="UTF-8"?>
<svg width="1200px" height="900px" viewBox="0 0 1200 900" version="1.1" xmlns="http://www.w3.org/2000/svg" xmlns:xlink="http://www.w3.org/1999/xlink">
    <!-- Generator: Sketch 52.2 (67145) - http://www.bohemiancoding.com/sketch -->
    <title>Background</title>
    <desc>Created with Sketch.</desc>
    <defs>
        <radialGradient cx="48.4062101%" cy="48.4072717%" fx="48.4062101%" fy="48.4072717%" r="68.4814334%" gradientTransform="translate(0.484062,0.484073),scale(0.750000,1.000000),rotate(86.116435),translate(-0.484062,-0.484073)" id="radialGradient-1">
            <stop stop-color="#4186E8" offset="0%"></stop>
            <stop stop-color="#090E36" offset="100%"></stop>
        </radialGradient>
        <polygon id="path-2" points="0 0 708 0 1200 0 1200 900 0 900"></polygon>
        <filter x="-5.3%" y="-5.3%" width="110.7%" height="110.7%" filterUnits="objectBoundingBox" id="filter-4">
            <feGaussianBlur stdDeviation="10" in="SourceGraphic"></feGaussianBlur>
        </filter>
        <linearGradient x1="50%" y1="3.53089756%" x2="50%" y2="77.9349279%" id="linearGradient-5">
            <stop stop-color="#F6EFED" offset="2.82920882%"></stop>
            <stop stop-color="#B5B0AA" offset="100%"></stop>
        </linearGradient>
        <circle id="path-6" cx="281.5" cy="281.5" r="281.5"></circle>
        <filter x="-10.4%" y="-10.4%" width="120.8%" height="120.8%" filterUnits="objectBoundingBox" id="filter-8">
            <feGaussianBlur stdDeviation="14.6512277" in="SourceGraphic"></feGaussianBlur>
        </filter>
        <linearGradient x1="50%" y1="1.63796552%" x2="50%" y2="74.0651833%" id="linearGradient-9">
            <stop stop-color="#3187F9" offset="0%"></stop>
            <stop stop-color="#2F86F3" offset="40.4466221%"></stop>
            <stop stop-color="#1580AE" offset="100%"></stop>
        </linearGradient>
        <linearGradient x1="13.9339696%" y1="-5.42783415%" x2="95.883656%" y2="100%" id="linearGradient-10">
            <stop stop-color="#2BDDA4" offset="0%"></stop>
            <stop stop-color="#2AFFB9" offset="100%"></stop>
        </linearGradient>
        <filter x="-17.1%" y="-17.1%" width="134.2%" height="134.2%" filterUnits="objectBoundingBox" id="filter-11">
            <feGaussianBlur stdDeviation="14.6512277" in="SourceGraphic"></feGaussianBlur>
        </filter>
        <linearGradient x1="50%" y1="2.37718723%" x2="50%" y2="78.4417429%" id="linearGradient-12">
            <stop stop-color="#FF5D4B" offset="0%"></stop>
            <stop stop-color="#B03E4C" offset="100%"></stop>
        </linearGradient>
        <circle id="path-13" cx="128.5" cy="128.5" r="128.5"></circle>
        <filter x="-17.9%" y="-17.9%" width="135.9%" height="135.9%" filterUnits="objectBoundingBox" id="filter-15">
            <feGaussianBlur stdDeviation="14.6512277" in="SourceGraphic"></feGaussianBlur>
        </filter>
        <linearGradient x1="50%" y1="11.0953046%" x2="50%" y2="90.7271635%" id="linearGradient-16">
            <stop stop-color="#83A1EB" offset="0%"></stop>
            <stop stop-color="#405495" offset="100%"></stop>
        </linearGradient>
        <circle id="path-17" cx="122.5" cy="122.5" r="122.5"></circle>
    </defs>
    <g id="Galay-Listing-Freebie" stroke="none" stroke-width="1" fill="none" fill-rule="evenodd">
        <g id="Galaxy-Listing-Freebie">
            <g id="Background">
                <mask id="mask-3" fill="white">
                    <use xlink:href="#path-2"></use>
                </mask>
                <use fill="url(#radialGradient-1)" xlink:href="#path-2"></use>
                <circle id="Star" fill="#FFFFFF" fill-rule="nonzero" opacity="0.100000001" mask="url(#mask-3)" cx="247" cy="465" r="9"></circle>
                <circle id="Star" fill="#FFFFFF" fill-rule="nonzero" opacity="0.100000001" mask="url(#mask-3)" cx="978" cy="431" r="9"></circle>
                <circle id="Star" fill="#FFFFFF" fill-rule="nonzero" opacity="0.100000001" mask="url(#mask-3)" cx="379" cy="303" r="9"></circle>
                <g id="Jupiter" opacity="0.25" mask="url(#mask-3)">
                    <g transform="translate(-210.000000, 487.000000)">
                        <circle id="Glow" stroke="none" fill="#F6EFED" fill-rule="evenodd" opacity="0.300000012" style="mix-blend-mode: screen;" filter="url(#filter-4)" cx="281.5" cy="281.5" r="281.5"></circle>
                        <mask id="mask-7" fill="white">
                            <use xlink:href="#path-6"></use>
                        </mask>
                        <use id="Base" stroke="none" fill="url(#linearGradient-5)" fill-rule="evenodd" xlink:href="#path-6"></use>
                        <path d="M31.9391492,151.138879 C39.4072474,136.871394 48.0629773,123.323614 57.7750778,110.626799 C132.350052,94.6191896 206.925026,86.6153846 281.5,86.6153846 C356.074974,86.6153846 430.649948,94.6191896 505.224922,110.626799 C514.937023,123.323614 523.592753,136.871394 531.060851,151.138879 C447.873901,131.220652 364.68695,121.261538 281.5,121.261538 C198.31305,121.261538 115.126099,131.220652 31.9391492,151.138879 Z" id="shape" stroke="none" fill="#BA9D8C" fill-rule="evenodd" mask="url(#mask-7)"></path>
                        <path d="M83.2646438,81.6375428 C134.140405,31.1733919 204.179734,0 281.5,0 C359.596635,0 430.265384,31.8025559 481.262071,83.1634897 C412.772855,71.0288555 344.741908,64.9615385 277.169231,64.9615385 C212.490997,64.9615385 147.856134,70.5202066 83.2646438,81.6375428 Z" id="shape" stroke="none" fill="#C3B6A4" fill-rule="evenodd" mask="url(#mask-7)"></path>
                        <path d="M104.389566,62.6864107 C114.382582,54.5879104 124.941343,47.1601285 135.997336,40.4715768 C184.498224,33.700782 232.999112,30.3153846 281.5,30.3153846 C330.000888,30.3153846 378.501776,33.700782 427.002664,40.4715768 C438.058657,47.1601285 448.617418,54.5879104 458.610434,62.6864107 C399.573623,52.6544446 340.536811,47.6384615 281.5,47.6384615 C222.463189,47.6384615 163.426377,52.6544446 104.389566,62.6864107 Z" id="shape" stroke="none" fill="#AF9184" fill-rule="evenodd" mask="url(#mask-7)"></path>
                        <path d="M168.954477,23.3994645 C203.42174,8.34879453 241.485887,0 281.5,0 C321.514113,0 359.57826,8.34879453 394.045523,23.3994645 C356.530349,19.3485395 319.015174,17.3230769 281.5,17.3230769 C243.984826,17.3230769 206.469651,19.3485395 168.954477,23.3994645 Z" id="shape" stroke="none" fill="#AF9184" fill-rule="evenodd" mask="url(#mask-7)"></path>
                        <path d="M1.93588805,248.31111 C4.67092348,225.024753 10.2481364,202.607685 18.3112486,181.4162 C105.36479,164.410528 193.094373,155.907692 281.5,155.907692 C368.992216,155.907692 456.655091,164.235733 544.488625,180.891814 C552.604429,202.093576 558.230107,224.527407 561.007816,247.835463 C467.088669,232.745154 373.919398,225.2 281.5,225.2 C188.114632,225.2 94.9265942,232.903703 1.93588805,248.31111 Z" id="shape" stroke="none" fill="#BA9D8C" fill-rule="evenodd" mask="url(#mask-7)"></path>
                        <path d="M23.8830393,395.146494 C12.9499126,370.399198 5.47807947,343.780262 2.08122301,315.90337 C95.842162,321.839585 190.425344,324.807692 285.830769,324.807692 C377.343789,324.807692 469.010576,322.076833 560.83113,316.615116 C557.357829,344.527618 549.798081,371.171757 538.769349,395.93007 C521.289744,397.239635 500.314295,398.104435 475.453116,398.104435 C437.407692,398.104435 446.069231,379.009344 394.1,379.009344 C359.453846,379.009344 339.24359,386.926742 333.469231,402.761538 C339.24359,422.971795 359.453846,431.633333 394.1,428.746154 C415.624278,428.746154 450.080172,417.779659 475.453116,415.753846 C490.004611,414.592034 508.499586,413.372577 530.938041,412.095476 C527.403876,418.831884 523.604824,425.407513 519.554724,431.808524 C505.434586,432.386766 490.826104,432.874428 475.453116,433.076923 C450.004723,433.412133 424.415385,446.069231 394.1,446.069231 C313.52777,449.004757 313.52777,402.761538 285.830769,402.761538 C198.496279,402.761538 111.180363,400.223177 23.8830211,395.146453 L23.8830393,395.146494 Z" id="shape" stroke="none" fill="#AF9184" fill-rule="evenodd" mask="url(#mask-7)"></path>
                        <ellipse id="shape" stroke="none" fill="#CD7D69" fill-rule="evenodd" mask="url(#mask-7)" cx="389.769231" cy="411.423077" rx="43.3076923" ry="25.9846154"></ellipse>
                        <path d="M34.6461538,419.337652 C83.4882122,460.126874 146.365624,484.672672 214.976014,484.672672 C370.444171,484.672672 496.476014,358.640829 496.476014,203.172672 C496.476014,152.943837 483.320627,105.787607 460.267412,64.9615385 C522.099332,116.598918 561.437552,194.268751 561.437552,281.126518 C561.437552,436.594676 435.405709,562.626518 279.937552,562.626518 C174.69823,562.626518 82.9471897,504.876322 34.6461538,419.337652 Z" id="shadow" stroke="none" fill="#4C3F2F" fill-rule="evenodd" opacity="0.200000003" mask="url(#mask-7)"></path>
                    </g>
                </g>
                <g id="Earth" opacity="0.25" mask="url(#mask-3)">
                    <g transform="translate(844.000000, -86.000000)">
                        <circle id="Glow" fill="#72AFFF" opacity="0.300000012" style="mix-blend-mode: screen;" filter="url(#filter-8)" cx="211" cy="211" r="211"></circle>
                        <path d="M420.213431,210.115956 C420.213431,326.159796 326.141314,420.228832 210.106715,420.228832 C94.0721168,420.228832 0,326.159796 0,210.115956 C0,94.0721168 94.0721168,0 210.106715,0 C326.141314,0 420.213431,94.0721168 420.213431,210.115956" id="Base" fill="url(#linearGradient-9)"></path>
                        <path d="M413.221168,162.035679 L409.802044,160.757358 L393.291679,160.757358 L381.093723,150.934307 L355.558102,169.798015 L334.334891,150.934307 L298.172263,157.61546 L275.008467,160.366161 L271.065693,203.986175 L280.491387,245.640964 L319.025839,245.640964 L340.433869,242.499066 L349.674745,259.397547 L359.500876,279.04673 L342.189635,293.585708 L356.728613,326.597197 L354.387591,339.565226 L367.201606,349.012482 C399.42146,312.085942 418.950511,263.790044 418.950511,210.929153 C418.950511,194.095358 416.979124,177.726686 413.221168,162.035679" id="Shape" fill="url(#linearGradient-10)"></path>
                        <path d="M28.769927,190.95038 L42.4156204,194.092277 L56.0305109,203.000482 L74.3582482,208.766788 L83.8147445,211.123212 L92.7167883,215.053664 L88.0039416,224.485518 L73.3109489,248.062073 L89.5748905,267.449431 L112.615474,282.120861 L112.615474,295.221343 L127.801314,318.274248 C127.801314,318.274248 126.230365,332.948759 127.801314,337.664686 C129.372263,342.380613 138.305109,367.004467 138.305109,367.004467 L147.207153,378.53092 L168.676788,381.152248 L155.061898,359.146642 C155.061898,359.146642 174.960584,328.756482 176.531533,327.709182 C178.102482,326.661883 170.247737,314.608701 171.818686,313.034672 C173.389635,311.463723 185.957226,297.842672 185.957226,297.842672 L199.60292,280.549912 L205.363066,258.020657 L188.082628,230.772394 C188.082628,230.772394 168.676788,217.148263 168.676788,215.577314 C168.676788,214.003285 156.109197,200.379153 156.109197,200.379153 L120.993869,199.334934 L101.095182,193.048058 L93.7640876,206.14546 L76.9764964,197.763985 L77.500146,183.918073 L64.4089051,183.918073 L57.0778102,172.613401 L68.0744526,164.225766 L90.6221898,175.755299 L104.76073,166.847095 L119.946569,131.217358 L133.592263,113.924599 L158.203796,113.924599 L161.869343,105.540044 L178.102482,97.682219 L184.94073,102.204088 L192.271825,91.3953431 L178.102482,71.4843358 L167.105839,67.815708 L163.039854,71.6260292 L149.825401,84.0580876 L118.89927,76.7239124 L114.710073,91.3953431 L101.095182,74.1025839 L118.89927,67.815708 L138.828759,73.0552847 L146.683504,65.1974599 L171.818686,61.5257518 L151.39635,40.0437956 L127.801314,40.0437956 L118.37562,55.2419562 L108.949927,43.1887737 L86.1557664,41.6855912 C41.9843796,74.4167737 11.119854,124.049518 3.08029197,181.025679 L19.8678832,183.918073 L28.769927,190.95038" id="Shape" fill="#2BDDA4"></path>
                        <path d="M336.367883,78.5474453 L336.367883,87.976219 L308.614453,95.8371241 L311.232701,115.751212 L295.492409,106.122219 L280.306569,118.36946 L290.255912,133.040891 L305.441752,135.135489 L331.131387,114.700832 L338.462482,124.132686 C338.462482,124.132686 333.749635,135.135489 338.462482,138.804117 C343.175328,142.469664 362.981606,148.235971 362.981606,148.235971 L362.981606,130.419562 L349.459124,118.36946 L358.391971,111.032204 L374.625109,124.656336 L369.388613,134.08819 L399.760292,148.235971 C399.760292,148.235971 403.11781,144.376365 407.953869,138.680905 C392.706423,95.5352555 363.751679,58.8612993 326.326131,33.8832117 L317.516496,67.0209927 L336.367883,78.5474453" id="Shape" fill="url(#linearGradient-10)"></path>
                        <path d="M48.9458394,301.970263 L45.7731387,298.788321 L36.9635036,300.593372 L36.9635036,309.258234 L27.7226277,314.479328 C31.8810219,321.865869 36.5014599,328.975182 41.4915328,335.773387 L48.1449635,334.525869 L61.2670073,325.140219 L62.0062774,316.598569 L48.9458394,310.339416 L48.9458394,301.970263" id="Shape" fill="url(#linearGradient-10)"></path>
                        <path d="M25.9692308,311.070879 C62.5790862,341.644682 109.709224,360.043132 161.13655,360.043132 C277.668632,360.043132 372.13655,265.575214 372.13655,149.043132 C372.13655,111.393809 362.275852,76.0475763 344.996177,45.4461538 C391.342661,84.1512587 420.828858,142.369145 420.828858,207.473901 C420.828858,324.005983 326.36094,418.473901 209.828858,418.473901 C130.946098,418.473901 62.1735596,375.186897 25.9692308,311.070879 Z" id="Shadow" fill="#11057E" opacity="0.200000003"></path>
                    </g>
                </g>
                <g id="Mars" opacity="0.25" mask="url(#mask-3)">
                    <g transform="translate(828.000000, 511.000000)">
                        <circle id="Glow" stroke="none" fill="#FF8276" fill-rule="evenodd" style="mix-blend-mode: screen;" opacity="0.300000012" filter="url(#filter-11)" cx="128.5" cy="128.5" r="128.5"></circle>
                        <mask id="mask-14" fill="white">
                            <use xlink:href="#path-13"></use>
                        </mask>
                        <use id="Base" stroke="none" fill="url(#linearGradient-12)" fill-rule="evenodd" xlink:href="#path-13"></use>
                        <polygon id="Shape" stroke="none" fill="#BE4549" fill-rule="evenodd" mask="url(#mask-14)" points="35.5846154 57.3307692 21.7461538 88.9615385 53.3769231 88.9615385 53.3769231 73.1461538 43.4923077 73.1461538"></polygon>
                        <path d="M42.7127664,32.828151 C65.461209,12.4163688 95.5306053,0 128.5,0 C180.289933,0 224.923929,30.6382074 245.265601,74.7782353 L235.253846,88.9615385 L235.253846,150.246154 L221.415385,164.084615 L205.6,183.853846 L187.807692,170.015385 L215.484615,150.246154 L205.6,126.523077 L205.6,110.707692 L173.969231,126.523077 L173.969231,150.246154 L136.407692,150.246154 L136.407692,110.707692 C143.149384,115.675378 148.421179,117.652301 152.223077,116.638462 C156.024975,115.624622 160.637796,111.011801 166.061538,102.8 L187.807692,75.1230769 L205.6,75.1230769 L205.6,55.3538462 L187.807692,43.4923077 L152.223077,43.4923077 L90.9384615,55.3538462 L65.2384615,75.1230769 L65.2384615,43.4923077 L53.3769231,43.4923077 L42.7127664,32.828151 Z" id="Shape" stroke="none" fill="#9B3B48" fill-rule="evenodd" opacity="0.46" mask="url(#mask-14)"></path>
                        <path d="M6.53416809,169.065295 L15.8153846,144.315385 L15.8153846,114.661538 L33.6076923,114.661538 L45.4692308,132.453846 L45.4692308,175.946154 L88.9615385,175.946154 L88.9615385,189.784615 L116.638462,213.507692 L106.753846,175.946154 L116.638462,175.946154 L120.592308,193.738462 L150.246154,203.623077 L168.038462,203.623077 L191.761538,213.507692 L224.865658,213.507692 C201.320047,240.178824 166.874422,257 128.5,257 C71.7063604,257 23.5182028,220.155552 6.53416809,169.065295 Z" id="Shape" stroke="none" fill="#8E3355" fill-rule="evenodd" mask="url(#mask-14)"></path>
                        <path d="M223.126897,215.437816 C210.501363,229.172801 194.924059,240.151511 177.400791,247.368141 L171.992308,243.161538 L164.084615,229.323077 L134.430769,215.484615 L120.592308,193.738462 L146.292308,199.669231 L166.061538,203.623077 L189.784615,209.553846 L223.126927,215.437783 Z" id="Shape" stroke="none" fill="#703969" fill-rule="evenodd" mask="url(#mask-14)"></path>
                        <path d="M59.9860557,237.230769 C33.5673759,220.548723 13.6509339,194.504162 4.89722865,163.757587 L15.8153846,140.361538 L15.8153846,104.776923 L23.7230769,104.776923 L37.5615385,114.661538 L55.3538462,120.592308 L55.3538462,128.5 L45.4692308,128.5 L45.4692308,170.015385 L69.1923077,197.692308 L88.9615385,213.507692 L108.730769,213.507692 L118.615385,225.369231 L88.9615385,225.369231 L88.9615385,237.230769 L59.9860557,237.230769 Z" id="Shape" stroke="none" fill="#703969" fill-rule="evenodd" mask="url(#mask-14)"></path>
                        <polygon id="Shape" stroke="none" fill="#BE4549" fill-rule="evenodd" opacity="0.650167411" mask="url(#mask-14)" points="86.9846154 90.9384615 102.8 90.9384615 86.9846154 116.818182"></polygon>
                        <path d="M201.10554,22.4631672 C219.391031,35.0076594 234.268315,52.1591001 244.063798,72.2438944 L233.276923,83.0307692 L227.346154,90.9384615 L227.346154,96.8692308 L217.461538,83.0307692 L217.461538,59.3076923 L211.530769,41.5153846 L203.623077,25.7 L201.10554,22.4631672 Z" id="Shape" stroke="none" fill="#A74252" fill-rule="evenodd" mask="url(#mask-14)"></path>
                        <path d="M15.8153846,191.420562 C38.1109601,210.040154 66.8134375,221.244897 98.1329227,221.244897 C169.101513,221.244897 226.632923,163.713487 226.632923,92.7448966 C226.632923,69.8162808 220.627711,48.2902575 210.104307,29.6538462 C238.329535,53.2254385 256.286769,88.6804069 256.286769,128.329512 C256.286769,199.298102 198.755359,256.829512 127.786769,256.829512 C79.7467943,256.829512 37.8639924,230.467522 15.8153846,191.420562 Z" id="Shape" stroke="none" fill="#570B2A" fill-rule="evenodd" opacity="0.200000003" mask="url(#mask-14)"></path>
                    </g>
                </g>
                <g id="Uranus" opacity="0.25" mask="url(#mask-3)">
                    <g transform="translate(72.000000, 65.000000)">
                        <circle id="Glow" stroke="none" fill="#5867C8" fill-rule="evenodd" opacity="0.300000012" style="mix-blend-mode: screen;" filter="url(#filter-15)" cx="122.5" cy="122.5" r="122.5"></circle>
                        <mask id="mask-18" fill="white">
                            <use xlink:href="#path-17"></use>
                        </mask>
                        <use id="Base" stroke="none" fill="url(#linearGradient-16)" fill-rule="evenodd" xlink:href="#path-17"></use>
                        <path d="M1.09199428,106.072414 C41.5613295,117.024138 82.0306648,122.5 122.5,122.5 C162.969335,122.5 203.43867,117.024138 243.908006,106.072414 C244.628181,111.44579 245,116.929474 245,122.5 C245,190.154882 190.154882,245 122.5,245 C54.8451181,245 0,190.154882 0,122.5 C0,116.929474 0.371819499,111.44579 1.09199428,106.072414 Z" id="shape" stroke="none" fill="#5661AD" fill-rule="evenodd" opacity="0.600000024" mask="url(#mask-18)"></path>
                        <path d="M14.9693052,181.228617 C50.8128702,189.819795 86.6564351,194.115385 122.5,194.115385 C158.343565,194.115385 194.18713,189.819795 230.030695,181.228617 C209.23194,219.229929 168.875431,245 122.5,245 C76.1245686,245 35.7680598,219.229929 14.9693052,181.228617 Z" id="shape" stroke="none" fill="#465199" fill-rule="evenodd" mask="url(#mask-18)"></path>
                        <path d="M26.473203,46.4322913 C48.9124141,18.1434734 83.5873894,0 122.5,0 C161.412611,0 196.087586,18.1434734 218.526797,46.4322913 C186.517865,51.9133279 154.508932,54.6538462 122.5,54.6538462 C90.4910677,54.6538462 58.4821353,51.9133279 26.473203,46.4322913 Z" id="shape" stroke="none" fill="#4546A6" fill-rule="evenodd" opacity="0.600000024" mask="url(#mask-18)"></path>
                        <path d="M12.5729205,68.3798094 C14.5984172,64.2735081 16.8472222,60.2971016 19.3034791,56.4664463 C53.7023194,62.7965077 88.1011597,65.9615385 122.5,65.9615385 C156.89884,65.9615385 191.297681,62.7965077 225.696521,56.4664463 C228.152778,60.2971016 230.401583,64.2735081 232.427079,68.3798094 C195.78472,75.5625006 159.14236,79.1538462 122.5,79.1538462 C85.8576402,79.1538462 49.2152803,75.5625006 12.5729205,68.3798094 Z" id="shape" stroke="none" fill="#535FB1" fill-rule="evenodd" opacity="0.300000012" mask="url(#mask-18)"></path>
                        <path d="M15.0769231,182.482637 C36.33146,200.232832 63.6937439,210.914396 93.5508407,210.914396 C161.205723,210.914396 216.050841,156.069277 216.050841,88.4143956 C216.050841,66.5563767 210.326028,46.0354594 200.293989,28.2692308 C227.201308,50.740204 244.320072,84.5396875 244.320072,122.337473 C244.320072,189.992354 189.474953,244.837473 121.820072,244.837473 C76.0232086,244.837473 36.0960239,219.706392 15.0769231,182.482637 Z" id="Shadow" stroke="none" fill="#191A5C" fill-rule="evenodd" opacity="0.200000003" mask="url(#mask-18)"></path>
                    </g>
                </g>
            </g>
        </g>
    </g>
</svg>